<?xml version="1.0" encoding="UTF-8" standalone="no"?>
<!DOCTYPE svg PUBLIC "-//W3C//DTD SVG 1.1//EN"
 "http://www.w3.org/Graphics/SVG/1.1/DTD/svg11.dtd">
<!-- Generated by graphviz version 2.38.0 (20140413.2041)
 -->
<!-- Title: Tree Pages: 1 -->
<svg width="203pt" height="233pt"
 viewBox="0.00 0.00 203.16 232.80" xmlns="http://www.w3.org/2000/svg" xmlns:xlink="http://www.w3.org/1999/xlink">
<g id="graph0" class="graph" transform="scale(1 1) rotate(0) translate(4 228.8)">
<title>Tree</title>
<polygon fill="white" stroke="none" points="-4,4 -4,-228.8 199.161,-228.8 199.161,4 -4,4"/>
<!-- 0 -->
<g id="node1" class="node"><title>0</title>
<polygon fill="none" stroke="black" points="135.539,-225.001 26.7823,-225.001 26.7823,-166.199 135.539,-166.199 135.539,-225.001"/>
<text text-anchor="middle" x="81.1606" y="-208.2" font-family="Times,serif" font-size="14.00">X[1] &lt;= &#45;1.1367</text>
<text text-anchor="middle" x="81.1606" y="-191.4" font-family="Times,serif" font-size="14.00">10</text>
<text text-anchor="middle" x="81.1606" y="-174.6" font-family="Times,serif" font-size="14.00">[3, 3, 4]</text>
</g>
<!-- 1 -->
<g id="node2" class="node"><title>1</title>
<polygon fill="none" stroke="black" points="60.4827,-121.802 -0.16146,-121.802 -0.16146,-80.5981 60.4827,-80.5981 60.4827,-121.802"/>
<text text-anchor="middle" x="30.1606" y="-105.4" font-family="Times,serif" font-size="14.00">2</text>
<text text-anchor="middle" x="30.1606" y="-88.6" font-family="Times,serif" font-size="14.00">[0, 0, 2]</text>
</g>
<!-- 0&#45;&gt;1 -->
<g id="edge1" class="edge"><title>0&#45;&gt;1</title>
<path fill="none" stroke="black" d="M65.5818,-166.375C59.4027,-155.18 52.3029,-142.317 46.0898,-131.06"/>
<polygon fill="black" stroke="black" points="49.0156,-129.118 41.119,-122.054 42.8871,-132.5 49.0156,-129.118"/>
<text text-anchor="middle" x="34.1846" y="-141.873" font-family="Times,serif" font-size="14.00">True</text>
</g>
<!-- 2 -->
<g id="node3" class="node"><title>2</title>
<polygon fill="none" stroke="black" points="186.539,-130.601 77.7823,-130.601 77.7823,-71.7986 186.539,-71.7986 186.539,-130.601"/>
<text text-anchor="middle" x="132.161" y="-113.8" font-family="Times,serif" font-size="14.00">X[1] &lt;= &#45;0.9095</text>
<text text-anchor="middle" x="132.161" y="-97" font-family="Times,serif" font-size="14.00">8</text>
<text text-anchor="middle" x="132.161" y="-80.2" font-family="Times,serif" font-size="14.00">[3, 3, 2]</text>
</g>
<!-- 0&#45;&gt;2 -->
<g id="edge2" class="edge"><title>0&#45;&gt;2</title>
<path fill="none" stroke="black" d="M96.7394,-166.375C101.441,-157.857 106.676,-148.373 111.647,-139.366"/>
<polygon fill="black" stroke="black" points="114.733,-141.017 116.501,-130.571 108.605,-137.634 114.733,-141.017"/>
<text text-anchor="middle" x="123.436" y="-150.39" font-family="Times,serif" font-size="14.00">False</text>
</g>
<!-- 3 -->
<g id="node4" class="node"><title>3</title>
<polygon fill="none" stroke="black" points="123.161,-36 69.1606,-36 69.1606,-0 123.161,-0 123.161,-36"/>
<text text-anchor="middle" x="96.1606" y="-13.8" font-family="Times,serif" font-size="14.00">(...)</text>
</g>
<!-- 2&#45;&gt;3 -->
<g id="edge3" class="edge"><title>2&#45;&gt;3</title>
<path fill="none" stroke="black" d="M119.57,-71.8002C115.78,-63.2537 111.639,-53.912 107.907,-45.4942"/>
<polygon fill="black" stroke="black" points="111.012,-43.8631 103.76,-36.1398 104.613,-46.7002 111.012,-43.8631"/>
</g>
<!-- 4 -->
<g id="node5" class="node"><title>4</title>
<polygon fill="none" stroke="black" points="195.161,-36 141.161,-36 141.161,-0 195.161,-0 195.161,-36"/>
<text text-anchor="middle" x="168.161" y="-13.8" font-family="Times,serif" font-size="14.00">(...)</text>
</g>
<!-- 2&#45;&gt;4 -->
<g id="edge4" class="edge"><title>2&#45;&gt;4</title>
<path fill="none" stroke="black" d="M144.752,-71.8002C148.541,-63.2537 152.682,-53.912 156.414,-45.4942"/>
<polygon fill="black" stroke="black" points="159.708,-46.7002 160.562,-36.1398 153.309,-43.8631 159.708,-46.7002"/>
</g>
</g>
</svg>
